<svg preserveAspectRatio="none" width="100%" height="100%" overflow="visible" style="display: block;" viewBox="0 0 24 24" fill="none" xmlns="http://www.w3.org/2000/svg">
<g id="silver">
<path id="Vector" d="M13.5 20C15.9853 20 18 17.9853 18 15.5C18 13.0147 15.9853 11 13.5 11C11.0147 11 9 13.0147 9 15.5C9 17.9853 11.0147 20 13.5 20Z" fill="var(--fill-0, #E4E4E7)"/>
<path id="Vector_2" d="M12 21.25C15.4518 21.25 18.25 18.4518 18.25 15C18.25 11.5482 15.4518 8.75 12 8.75C8.54822 8.75 5.75 11.5482 5.75 15C5.75 18.4518 8.54822 21.25 12 21.25Z" stroke="var(--stroke-0, #737373)" stroke-linecap="round" stroke-linejoin="round"/>
<path id="Vector_3" d="M10.09 9.03L13.83 3.21C14.01 2.92 14.33 2.75 14.67 2.75H17.46C17.86 2.75 18.09 3.19 17.88 3.52L14.26 9.16" stroke="var(--stroke-0, #737373)" stroke-linecap="round" stroke-linejoin="round"/>
<path id="Vector_4" d="M9.35 9.27L6.05 3.5C5.86 3.17 6.1 2.75 6.48 2.75H9.29C9.65 2.75 9.98 2.94 10.16 3.25L11.87 6.25" stroke="var(--stroke-0, #737373)" stroke-linecap="round" stroke-linejoin="round"/>
</g>
</svg>
